<svg id="Camada_1" data-name="Camada 1" xmlns="http://www.w3.org/2000/svg" xmlns:xlink="http://www.w3.org/1999/xlink" viewBox="0 0 186.72258 33.01023"><defs><clipPath id="clip-path" transform="translate(60.32443 0.2709)"><path d="M.375.375V32.18478H64.51605V.375ZM20.89105,27.83437a11.5545,11.5545,0,1,1,11.55444-11.5545A11.5545,11.5545,0,0,1,20.89105,27.83437Z" style="fill:none"/></clipPath></defs><title>img-1</title><g style="clip-path:url(#clip-path)"><line x1="186.61129" y1="0.22386" x2="121.11129" y2="32.78636" style="fill:none;stroke:#666;stroke-miterlimit:10;stroke-width:0.5px"/><line x1="175.61129" y1="0.22386" x2="110.11129" y2="32.78636" style="fill:none;stroke:#666;stroke-miterlimit:10;stroke-width:0.5px"/><line x1="164.61129" y1="0.22386" x2="99.11129" y2="32.78636" style="fill:none;stroke:#666;stroke-miterlimit:10;stroke-width:0.5px"/><line x1="153.61129" y1="0.22386" x2="88.11129" y2="32.78636" style="fill:none;stroke:#666;stroke-miterlimit:10;stroke-width:0.5px"/><line x1="142.61129" y1="0.22386" x2="77.11129" y2="32.78636" style="fill:none;stroke:#666;stroke-miterlimit:10;stroke-width:0.5px"/><line x1="131.61129" y1="0.22386" x2="66.11129" y2="32.78636" style="fill:none;stroke:#666;stroke-miterlimit:10;stroke-width:0.5px"/><line x1="120.61129" y1="0.22386" x2="55.11129" y2="32.78636" style="fill:none;stroke:#666;stroke-miterlimit:10;stroke-width:0.5px"/><line x1="109.61129" y1="0.22386" x2="44.11129" y2="32.78636" style="fill:none;stroke:#666;stroke-miterlimit:10;stroke-width:0.5px"/><line x1="98.61129" y1="0.22386" x2="33.11129" y2="32.78636" style="fill:none;stroke:#666;stroke-miterlimit:10;stroke-width:0.5px"/><line x1="87.61129" y1="0.22386" x2="22.11129" y2="32.78636" style="fill:none;stroke:#666;stroke-miterlimit:10;stroke-width:0.5px"/><line x1="76.61129" y1="0.22386" x2="11.11129" y2="32.78636" style="fill:none;stroke:#666;stroke-miterlimit:10;stroke-width:0.5px"/><line x1="65.61129" y1="0.22386" x2="0.11129" y2="32.78636" style="fill:none;stroke:#666;stroke-miterlimit:10;stroke-width:0.5px"/></g><rect x="60.69943" y="0.6459" width="64.14103" height="31.80978" style="fill:none;stroke:#fff;stroke-miterlimit:10;stroke-width:0.75px"/><circle cx="81.21545" cy="16.55079" r="11.55449" style="fill:none;stroke:#fff;stroke-miterlimit:10;stroke-width:0.5px"/><path d="M61.85733,2.55257H60.373v.5h.48779V5.242a1.561,1.561,0,0,1-1.65088,1.40771c-.58935,0-1.6901-.41894-1.6901-1.40771V3.05257h.45752v-.5H56.49291v.5h.45069V5.22884A2.27841,2.27841,0,0,0,61.43644,5.203V3.05257h.42089Z" transform="translate(60.32443 0.2709)" style="fill:#fff"/><path d="M24.95385,10.94613l-.022-.01953v-.127l.022-.01954a1.02272,1.02272,0,0,0,.22949-.01855.19274.19274,0,0,0,.0918-.06348,2.0503,2.0503,0,0,0,.16211-.311l.25635-.55664.66406-1.50391q.18823-.44165.37353-.88379h.1587l1.04248,2.45117.13916.32715q.06078.13917.14013.30274a.93068.93068,0,0,0,.11036.19287.19929.19929,0,0,0,.07519.04492.79641.79641,0,0,0,.20166.01855l.01953.01954v.127l-.01953.01953c-.17236-.01465-.32812-.022-.46631-.022q-.405.01245-.81054.022l-.01954-.01953v-.127l.01954-.01954a1.921,1.921,0,0,0,.34179-.02343.08074.08074,0,0,0,.06836-.084.41273.41273,0,0,0-.03418-.1416l-.30029-.74463H25.98412l-.26611.625a.73141.73141,0,0,0-.0708.24658.0958.0958,0,0,0,.06592.09034,1.11107,1.11107,0,0,0,.332.03173l.022.01954v.127l-.01953.01953q-.31494-.01977-.55176-.01953Q25.227,10.9266,24.95385,10.94613ZM26.06713,9.5765h1.23535l-.61279-1.47217Z" transform="translate(60.32443 0.2709)" style="fill:#fff"/><path d="M36.23994,3.181l-.07227.12107a1.06278,1.06278,0,0,1-.52038.12828.79148.79148,0,0,1-.61435-.2367.86859.86859,0,0,1-.21682-.61072,1.1215,1.1215,0,0,1,.037-.30266.78794.78794,0,0,1,.094-.21953.53155.53155,0,0,1,.12558-.13733,2.28024,2.28024,0,0,1,.23218-.14093,1.6777,1.6777,0,0,1,.24664-.11835.75068.75068,0,0,1,.22947-.028.88823.88823,0,0,1,.45895.1066c-.023.136-.0402.28775-.0524.45534l-.01626.01445H36.0972l-.01626-.01626a1.32042,1.32042,0,0,0-.01988-.20418c-.00858-.03478-.05646-.07227-.14365-.112a.66494.66494,0,0,0-.27916-.05963.54706.54706,0,0,0-.2638.06234.39154.39154,0,0,0-.17437.20418.87964.87964,0,0,0-.05872.33879,1.13791,1.13791,0,0,0,.047.32433.84068.84068,0,0,0,.12377.262.55508.55508,0,0,0,.20327.16714.6243.6243,0,0,0,.28188.06324.72861.72861,0,0,0,.19062-.0253,1.31092,1.31092,0,0,0,.21412-.08311Z" transform="translate(60.32443 0.2709)" style="fill:#fff"/><path d="M32.46749,6.33367l-.022-.01954V6.18718l.022-.01953A1.02272,1.02272,0,0,0,32.697,6.1491a.19279.19279,0,0,0,.09179-.06348,2.05009,2.05009,0,0,0,.16211-.311l.25635-.55664.66406-1.5039q.18823-.44166.37354-.88379h.15869L35.446,5.28142l.13916.32715q.06079.13915.14014.30273a.93.93,0,0,0,.11035.19287.19939.19939,0,0,0,.07519.04493.79651.79651,0,0,0,.20167.01855l.01953.01953v.12695l-.01953.01954c-.17237-.01465-.32813-.022-.46631-.022q-.405.01245-.81055.022l-.01953-.01954V6.18718l.01953-.01953a1.92062,1.92062,0,0,0,.3418-.02344.08073.08073,0,0,0,.06836-.084.41268.41268,0,0,0-.03418-.1416l-.3003-.74463H33.49776l-.26611.625a.73113.73113,0,0,0-.07081.24658.09579.09579,0,0,0,.06592.09033,1.111,1.111,0,0,0,.332.03174l.022.01953v.12695l-.01953.01954q-.315-.01978-.55176-.01954Q32.74068,6.31413,32.46749,6.33367ZM33.58077,4.964h1.23535l-.61279-1.47217Z" transform="translate(60.32443 0.2709)" style="fill:#fff"/></svg>