<?xml version="1.0" encoding="utf-8"?>
<!-- Generator: Adobe Illustrator 22.0.1, SVG Export Plug-In . SVG Version: 6.00 Build 0)  -->
<svg version="1.1" id="Camada_1" xmlns="http://www.w3.org/2000/svg" xmlns:xlink="http://www.w3.org/1999/xlink" x="0px" y="0px"
	 viewBox="0 0 841.9 375.9" style="enable-background:new 0 0 841.9 375.9;" xml:space="preserve">
<style type="text/css">
	.st0{fill:#FFFFFF;}
	.st1{fill:none;}
</style>
<g>
	<g>
		<path class="st0" d="M265.8,179.3c-2.5,24.2-10.8,42.5-24.7,55c-13.9,12.5-37.4,18.7-70.4,18.7c-33.5,0-56.2-5.9-68.1-17.8
			c-11.9-11.8-16.6-30.5-13.9-55.9l9.2-87.9h50.5l-9.2,87.9c-1.4,13.6,0.8,24.2,6.6,32c5.8,7.7,14.5,11.6,26,11.6
			c11.1,0,20.7-3.6,29-10.8c8.3-7.2,13.2-18.1,14.7-32.8l9.2-87.9H275L265.8,179.3z"/>
		<path class="st0" d="M560.7,249.1h-54l1-45.5c-0.5-3-1.6-5.8-3.3-8.4c-1.7-2.6-4.3-4.9-7.7-6.8c-5.1,0-13.5-0.2-25.3-0.5
			c-11.8-0.3-18.1-0.5-18.9-0.5l-6.5,61.6h-50.5l16.6-157.7h104.5c14.2,0,27.1,3.6,38.5,10.9c11.5,7.3,16.5,17.6,15.1,31
			c-1,9.2-5,17-12.2,23.4c-7.2,6.5-16,11.1-26.5,13.7l-0.2,1.9c4.1,0.5,8.1,1.4,12,2.8c4,1.4,8,2.9,10.8,5.9
			c6.1,6.5,5.5,16.4,5.8,19.4L560.7,249.1z M517.1,139c0.5-5.1-1.8-9.4-6.9-13c-5.1-3.6-10.8-5.4-17-5.4h-33.6l-4,38.4h34.1
			c7.3,0,13.5-1.7,18.7-5.2C513.5,150.2,516.5,145.3,517.1,139z"/>
		<path class="st0" d="M747,249.1h-68.5L618,142.3l-11.2,106.8h-47.1l16.6-157.7H648l57.5,104.5l11-104.5h47.1L747,249.1z"/>
		<path class="st0" d="M80.8,262.4h2.8l-2.2,13.5c-0.1,0.5-0.2,1-0.2,1.5c0,0.5-0.1,0.9-0.1,1.3c0,1,0.3,1.7,0.8,2.3
			c0.5,0.5,1.2,0.8,2.1,0.8c1.2,0,2.1-0.4,2.7-1.3c0.6-0.9,1.1-2.5,1.5-5l2.2-13h2.8l-2.2,13.3c0,0.1-0.1,0.3-0.1,0.6
			c-0.4,2.5-0.9,4.4-1.5,5.5c-0.5,1-1.2,1.8-2.2,2.3c-0.9,0.5-2.1,0.8-3.4,0.8c-1.7,0-3-0.5-4-1.5c-1-1-1.5-2.4-1.5-4.1
			c0-0.5,0-1,0.1-1.6c0.1-0.6,0.1-1.2,0.2-1.9L80.8,262.4z"/>
		<path class="st0" d="M93.6,284.5l3.7-22.1h3.8l5.4,17.7l3-17.7h2.8l-3.7,22.1H105l-5.5-18.2l-3.1,18.2H93.6z"/>
		<path class="st0" d="M112.6,284.5l3.7-22.1h2.8l-3.7,22.1H112.6z"/>
		<path class="st0" d="M120.7,262.4h2.8l2.5,18.5l8.3-18.5h3l-10.2,22.1h-3.3L120.7,262.4z"/>
		<path class="st0" d="M135.5,284.5l3.7-22.1h9.8l-0.5,3.1h-7l-1,6.3h7l-0.5,3h-7l-1.1,6.5h7l-0.5,3.2H135.5z"/>
		<path class="st0" d="M149.4,284.5l3.7-22.1h4.8c2.2,0,3.9,0.6,5.2,1.7c1.2,1.1,1.8,2.8,1.8,4.8c0,2-0.6,3.7-1.7,5
			c-1.1,1.3-2.6,2.1-4.6,2.3l3.9,8.3h-3.1l-5.1-10.8c0.1,0,0.3,0,0.5,0c2.7,0,4.4-0.3,5.2-0.8c0.6-0.4,1.1-0.9,1.4-1.6
			c0.3-0.7,0.5-1.4,0.5-2.2c0-1.2-0.3-2.1-1-2.7c-0.7-0.6-1.6-1-2.9-1c-0.3,0-0.7,0-1.2,0c-0.5,0-0.9,0-1.4,0.1l-3.2,18.9H149.4z"/>
		<path class="st0" d="M166.2,277.4h2.9c0,0.1,0,0.2,0,0.3c0,0.1,0,0.2,0,0.3c0,1.3,0.2,2.2,0.7,2.9c0.5,0.6,1.2,1,2.2,1
			c0.9,0,1.7-0.3,2.2-1c0.6-0.7,0.9-1.5,0.9-2.6c0-0.7-0.1-1.3-0.4-1.8s-0.9-1.1-1.9-1.8c-0.2-0.1-0.4-0.3-0.7-0.5
			c-1.2-0.8-2.1-1.5-2.7-2.2c-0.4-0.5-0.7-1.1-0.9-1.7c-0.2-0.6-0.3-1.3-0.3-2.1c0-1.8,0.5-3.3,1.6-4.5c1.1-1.2,2.4-1.8,4.1-1.8
			c1.6,0,2.8,0.5,3.8,1.5c0.9,1,1.4,2.4,1.4,4.2c0,0.2,0,0.3,0,0.4c0,0.1,0,0.2,0,0.3h-2.8c0-0.1,0-0.1,0-0.2c0-0.1,0-0.2,0-0.2
			c0-0.9-0.2-1.7-0.7-2.2c-0.4-0.5-1-0.8-1.8-0.8c-0.7,0-1.3,0.3-1.9,0.9c-0.5,0.6-0.8,1.3-0.8,2.1c0,1.2,1.1,2.5,3.2,3.9
			c0.4,0.3,0.8,0.5,1,0.7c0.9,0.6,1.6,1.4,2.1,2.4c0.5,1,0.7,2,0.7,3.2c0,1.9-0.6,3.6-1.8,4.9c-1.2,1.3-2.6,2-4.4,2
			c-1.9,0-3.3-0.6-4.3-1.8c-1-1.2-1.5-2.9-1.5-5.2V277.4z"/>
		<path class="st0" d="M179.7,284.5l3.7-22.1h2.8l-3.7,22.1H179.7z"/>
		<path class="st0" d="M186.4,284.5l3.7-22.1h5c2.8,0,4.9,0.8,6.5,2.5s2.3,4,2.3,7.1c0,3.8-1,6.8-3,9.1c-2,2.3-4.6,3.4-7.9,3.4
			H186.4z M195,265.3h-2.8l-2.7,16.2h3.3c2.4,0,4.3-0.9,5.8-2.5c1.5-1.7,2.2-3.9,2.2-6.7c0-2.2-0.5-4-1.5-5.1
			C198.4,265.9,196.9,265.3,195,265.3z"/>
		<path class="st0" d="M202.7,284.5l10.4-22.1h3.2l3.8,22.1h-2.9l-1.1-6.3h-7.5l-2.9,6.3H202.7z M215.7,275l-1.4-9.3L210,275H215.7z
			"/>
		<path class="st0" d="M221.4,284.5l3.7-22.1h5c2.8,0,4.9,0.8,6.5,2.5s2.3,4,2.3,7.1c0,3.8-1,6.8-3,9.1c-2,2.3-4.6,3.4-7.9,3.4
			H221.4z M230,265.3h-2.8l-2.7,16.2h3.3c2.4,0,4.3-0.9,5.8-2.5c1.5-1.7,2.2-3.9,2.2-6.7c0-2.2-0.5-4-1.5-5.1
			C233.4,265.9,231.9,265.3,230,265.3z"/>
		<path class="st0" d="M240.1,284.5l3.7-22.1h9.8l-0.5,3.1h-7l-1,6.3h7l-0.5,3h-7l-1.1,6.5h7l-0.5,3.2H240.1z"/>
		<polygon class="st0" points="276.3,78.2 274.9,91.4 412.2,91.4 413.6,78.2 		"/>
		<polygon class="st0" points="360.7,275 366.3,275 364.9,265.8 		"/>
		<path class="st0" d="M305.2,265.3h-2.8l-2.7,16.2h3.3c2.4,0,4.3-0.9,5.8-2.5c1.5-1.7,2.2-3.9,2.2-6.7c0-2.2-0.5-4-1.5-5.1
			C308.6,265.9,307.2,265.3,305.2,265.3z"/>
		<path class="st0" d="M318.5,156h79.2l-3.4,32h-79.2l-6.4,61.1h-50.4l-5.1,48.5h137.3l18.4-174.7H322L318.5,156z M275.3,265.5h-7
			l-1,6.3h7l-0.5,3h-7l-1.6,9.7h-2.8l3.7-22.1h9.8L275.3,265.5z M292.2,265.5h-7l-1,6.3h7l-0.5,3h-7l-1.1,6.5h7l-0.5,3.2h-9.8
			l3.7-22.1h9.8L292.2,265.5z M311,281.1c-2,2.3-4.6,3.4-7.9,3.4h-6.6l3.7-22.1h5c2.8,0,4.9,0.8,6.5,2.5c1.5,1.7,2.3,4,2.3,7.1
			C314,275.8,313,278.8,311,281.1z M331.8,265.5h-7l-1,6.3h7l-0.5,3h-7l-1.1,6.5h7l-0.5,3.2h-9.8l3.7-22.1h9.8L331.8,265.5z
			 M350,273.9c-1.1,1.3-2.6,2.1-4.6,2.3l3.9,8.3h-3.1l-5.1-10.8c0.1,0,0.3,0,0.5,0c2.7,0,4.4-0.3,5.2-0.8c0.6-0.4,1.1-0.9,1.4-1.6
			c0.3-0.7,0.5-1.4,0.5-2.2c0-1.2-0.3-2.1-1-2.7c-0.7-0.6-1.6-1-2.9-1c-0.3,0-0.7,0-1.2,0c-0.5,0-0.9,0-1.4,0.1l-3.2,18.9h-2.8
			l3.7-22.1h4.8c2.2,0,3.9,0.6,5.2,1.7c1.2,1.1,1.8,2.8,1.8,4.8C351.7,271,351.1,272.6,350,273.9z M367.9,284.5l-1.1-6.3h-7.5
			l-2.9,6.3h-3l10.4-22.1h3.2l3.8,22.1H367.9z M384.7,284.5h-9.2l3.7-22.1h2.8l-3.1,18.9h6.4L384.7,284.5z"/>
		<path class="st0" d="M398.5,284.5l3.7-22.1h5c2.8,0,4.9,0.8,6.5,2.5c1.5,1.7,2.3,4,2.3,7.1c0,3.8-1,6.8-3,9.1
			c-2,2.3-4.6,3.4-7.9,3.4H398.5z M407.1,265.3h-2.8l-2.7,16.2h3.3c2.4,0,4.3-0.9,5.8-2.5c1.5-1.7,2.2-3.9,2.2-6.7
			c0-2.2-0.5-4-1.5-5.1C410.5,265.9,409.1,265.3,407.1,265.3z"/>
		<path class="st0" d="M418.2,274.9c0-2,0.3-3.7,0.8-5.4c0.5-1.6,1.3-3,2.4-4.2c1-1.1,2.1-2,3.4-2.5c1.3-0.6,2.7-0.9,4.2-0.9
			c2.6,0,4.7,0.9,6.3,2.8c1.6,1.8,2.4,4.3,2.4,7.4c0,1.5-0.2,2.9-0.5,4.2c-0.3,1.3-0.8,2.5-1.4,3.6c-1,1.6-2.2,2.9-3.7,3.7
			c-1.5,0.9-3.2,1.3-5,1.3c-2.7,0-4.8-0.9-6.4-2.7C419,280.4,418.2,277.9,418.2,274.9z M421,274.7c0,2.2,0.5,4,1.7,5.3
			c1.1,1.3,2.6,2,4.4,2c2.3,0,4.1-0.9,5.5-2.8c1.4-1.8,2.2-4.2,2.2-7.1c0-2.2-0.5-4-1.6-5.3c-1.1-1.3-2.6-2-4.4-2
			c-2.2,0-4.1,0.9-5.5,2.8C421.7,269.5,421,271.8,421,274.7z"/>
		<path class="st0" d="M447.1,284.5l3.7-22.1h4.8c2.2,0,3.9,0.6,5.2,1.7c1.2,1.1,1.8,2.8,1.8,4.8c0,2-0.6,3.7-1.7,5
			c-1.1,1.3-2.6,2.1-4.6,2.3l3.9,8.3h-3.1l-5.1-10.8c0.1,0,0.3,0,0.5,0c2.7,0,4.4-0.3,5.2-0.8c0.6-0.4,1.1-0.9,1.4-1.6
			c0.3-0.7,0.5-1.4,0.5-2.2c0-1.2-0.3-2.1-1-2.7c-0.7-0.6-1.6-1-2.9-1c-0.3,0-0.7,0-1.2,0c-0.5,0-0.9,0-1.4,0.1l-3.2,18.9H447.1z"/>
		<path class="st0" d="M463.5,284.5l3.7-22.1h2.8l-3.7,22.1H463.5z"/>
		<path class="st0" d="M471.2,274.9c0-2,0.3-3.7,0.8-5.4c0.5-1.6,1.3-3,2.4-4.2c1-1.1,2.1-2,3.4-2.5c1.3-0.6,2.7-0.9,4.2-0.9
			c2.6,0,4.7,0.9,6.3,2.8c1.6,1.8,2.4,4.3,2.4,7.4c0,1.5-0.2,2.9-0.5,4.2c-0.3,1.3-0.8,2.5-1.4,3.6c-1,1.6-2.2,2.9-3.7,3.7
			c-1.5,0.9-3.2,1.3-5,1.3c-2.7,0-4.8-0.9-6.4-2.7C472,280.4,471.2,277.9,471.2,274.9z M474,274.7c0,2.2,0.5,4,1.7,5.3
			c1.1,1.3,2.6,2,4.4,2c2.3,0,4.1-0.9,5.5-2.8c1.4-1.8,2.2-4.2,2.2-7.1c0-2.2-0.5-4-1.6-5.3c-1.1-1.3-2.6-2-4.4-2
			c-2.2,0-4.1,0.9-5.5,2.8C474.7,269.5,474,271.8,474,274.7z"/>
		<path class="st0" d="M517,276.4h-8.7l0.5-2.8h11.6c-0.4,3.4-1.5,6.2-3.4,8.2c-1.9,2-4.3,3.1-7.2,3.1c-2.7,0-4.9-0.9-6.5-2.8
			c-1.6-1.8-2.4-4.4-2.4-7.5c0-1.7,0.3-3.4,0.8-4.9s1.2-2.9,2.2-4.1c1-1.2,2.1-2.1,3.4-2.7c1.3-0.6,2.7-0.9,4.2-0.9
			c2.3,0,4.2,0.6,5.7,1.9c1.5,1.3,2.5,3.2,3,5.7h-3c-0.4-1.5-1.1-2.7-2.1-3.6c-1-0.8-2.2-1.2-3.6-1.2c-2.2,0-4,0.9-5.5,2.8
			c-1.5,1.8-2.2,4.2-2.2,7c0,2.3,0.6,4.1,1.7,5.4c1.1,1.4,2.6,2,4.4,2c1.6,0,3-0.5,4.3-1.5C515.5,279.5,516.4,278.1,517,276.4z"/>
		<path class="st0" d="M521.6,284.5l3.7-22.1h4.8c2.2,0,3.9,0.6,5.2,1.7c1.2,1.1,1.8,2.8,1.8,4.8c0,2-0.6,3.7-1.7,5
			c-1.1,1.3-2.6,2.1-4.6,2.3l3.9,8.3h-3.1l-5.1-10.8c0.1,0,0.3,0,0.5,0c2.7,0,4.4-0.3,5.2-0.8c0.6-0.4,1.1-0.9,1.4-1.6
			c0.3-0.7,0.5-1.4,0.5-2.2c0-1.2-0.3-2.1-1-2.7c-0.7-0.6-1.6-1-2.9-1c-0.3,0-0.7,0-1.2,0c-0.5,0-0.9,0-1.4,0.1l-3.2,18.9H521.6z"/>
		<path class="st0" d="M535.3,284.5l10.4-22.1h3.2l3.8,22.1h-2.9l-1.1-6.3h-7.5l-2.9,6.3H535.3z M548.3,275l-1.4-9.3l-4.2,9.3H548.3
			z"/>
		<path class="st0" d="M554.3,284.5l3.7-22.1h3.8l5.4,17.7l3-17.7h2.8l-3.7,22.1h-3.6l-5.5-18.2l-3.1,18.2H554.3z"/>
		<path class="st0" d="M573.3,284.5l3.7-22.1h5c2.8,0,4.9,0.8,6.5,2.5s2.3,4,2.3,7.1c0,3.8-1,6.8-3,9.1c-2,2.3-4.6,3.4-7.9,3.4
			H573.3z M582,265.3h-2.8l-2.7,16.2h3.3c2.4,0,4.3-0.9,5.8-2.5c1.5-1.7,2.2-3.9,2.2-6.7c0-2.2-0.5-4-1.5-5.1
			C585.4,265.9,583.9,265.3,582,265.3z"/>
		<path class="st0" d="M592.1,284.5l3.7-22.1h9.8l-0.5,3.1h-7l-1,6.3h7l-0.5,3h-7l-1.1,6.5h7l-0.5,3.2H592.1z"/>
		<path class="st0" d="M614.2,284.5l3.7-22.1h5c2.8,0,4.9,0.8,6.5,2.5c1.5,1.7,2.3,4,2.3,7.1c0,3.8-1,6.8-3,9.1
			c-2,2.3-4.6,3.4-7.9,3.4H614.2z M622.9,265.3h-2.8l-2.7,16.2h3.3c2.4,0,4.3-0.9,5.8-2.5c1.5-1.7,2.2-3.9,2.2-6.7
			c0-2.2-0.5-4-1.5-5.1C626.3,265.9,624.8,265.3,622.9,265.3z"/>
		<path class="st0" d="M633.9,274.9c0-2,0.3-3.7,0.8-5.4c0.5-1.6,1.3-3,2.4-4.2c1-1.1,2.1-2,3.4-2.5c1.3-0.6,2.7-0.9,4.2-0.9
			c2.6,0,4.7,0.9,6.3,2.8c1.6,1.8,2.4,4.3,2.4,7.4c0,1.5-0.2,2.9-0.5,4.2c-0.3,1.3-0.8,2.5-1.4,3.6c-1,1.6-2.2,2.9-3.7,3.7
			c-1.5,0.9-3.2,1.3-5,1.3c-2.7,0-4.8-0.9-6.4-2.7C634.7,280.4,633.9,277.9,633.9,274.9z M636.8,274.7c0,2.2,0.5,4,1.7,5.3
			c1.1,1.3,2.6,2,4.4,2c2.3,0,4.1-0.9,5.5-2.8c1.4-1.8,2.2-4.2,2.2-7.1c0-2.2-0.5-4-1.6-5.3c-1.1-1.3-2.6-2-4.4-2
			c-2.2,0-4.1,0.9-5.5,2.8C637.5,269.5,636.8,271.8,636.8,274.7z"/>
		<path class="st0" d="M663.1,284.5l3.7-22.1h3.8l5.4,17.7l3-17.7h2.8l-3.7,22.1h-3.6l-5.5-18.2l-3.1,18.2H663.1z"/>
		<path class="st0" d="M683.1,274.9c0-2,0.3-3.7,0.8-5.4c0.5-1.6,1.3-3,2.4-4.2c1-1.1,2.1-2,3.4-2.5c1.3-0.6,2.7-0.9,4.2-0.9
			c2.6,0,4.7,0.9,6.3,2.8c1.6,1.8,2.4,4.3,2.4,7.4c0,1.5-0.2,2.9-0.5,4.2c-0.3,1.3-0.8,2.5-1.4,3.6c-1,1.6-2.2,2.9-3.7,3.7
			c-1.5,0.9-3.2,1.3-5,1.3c-2.7,0-4.8-0.9-6.4-2.7C683.9,280.4,683.1,277.9,683.1,274.9z M685.9,274.7c0,2.2,0.5,4,1.7,5.3
			c1.1,1.3,2.6,2,4.4,2c2.3,0,4.1-0.9,5.5-2.8c1.4-1.8,2.2-4.2,2.2-7.1c0-2.2-0.5-4-1.6-5.3c-1.1-1.3-2.6-2-4.4-2
			c-2.2,0-4.1,0.9-5.5,2.8C686.6,269.5,685.9,271.8,685.9,274.7z"/>
		<path class="st0" d="M703.7,284.5l3.7-22.1h4.8c2.2,0,3.9,0.6,5.2,1.7c1.2,1.1,1.8,2.8,1.8,4.8c0,2-0.6,3.7-1.7,5
			c-1.1,1.3-2.6,2.1-4.6,2.3l3.9,8.3h-3.1l-5.1-10.8c0.1,0,0.3,0,0.5,0c2.7,0,4.4-0.3,5.2-0.8c0.6-0.4,1.1-0.9,1.4-1.6
			c0.3-0.7,0.5-1.4,0.5-2.2c0-1.2-0.3-2.1-1-2.7c-0.7-0.6-1.6-1-2.9-1c-0.3,0-0.7,0-1.2,0c-0.5,0-0.9,0-1.4,0.1l-3.2,18.9H703.7z"/>
		<path class="st0" d="M722.7,284.5l3.2-19h-4.2l0.5-3h11l-0.5,3h-4l-3.2,19H722.7z"/>
		<path class="st0" d="M732,284.5l3.7-22.1h9.8l-0.5,3.1h-7l-1,6.3h7l-0.5,3h-7l-1.1,6.5h7l-0.5,3.2H732z"/>
	</g>
	<rect x="0" y="0" class="st1" width="841.9" height="375.8"/>
</g>
</svg>
